<svg width="12" height="10" viewBox="0 0 12 10" fill="none" xmlns="http://www.w3.org/2000/svg">
<path d="M11.9498 4.74599C11.9181 4.66412 11.8705 4.58932 11.8098 4.52589L8.47503 1.19114C8.41284 1.12895 8.33902 1.07963 8.25777 1.04597C8.17652 1.01232 8.08944 0.994995 8.00149 0.994995C7.82388 0.994995 7.65355 1.06555 7.52796 1.19114C7.46577 1.25333 7.41644 1.32715 7.38279 1.4084C7.34914 1.48965 7.33181 1.57673 7.33181 1.66467C7.33181 1.84228 7.40237 2.01262 7.52796 2.13821L9.72889 4.33248H1.33199C1.1551 4.33248 0.985462 4.40274 0.860384 4.52782C0.735307 4.6529 0.665039 4.82254 0.665039 4.99943C0.665039 5.17631 0.735307 5.34595 0.860384 5.47103C0.985462 5.59611 1.1551 5.66638 1.33199 5.66638H9.72889L7.52796 7.86064C7.46545 7.92265 7.41583 7.99641 7.38197 8.07768C7.34811 8.15896 7.33068 8.24613 7.33068 8.33418C7.33068 8.42222 7.34811 8.5094 7.38197 8.59067C7.41583 8.67195 7.46545 8.74571 7.52796 8.80771C7.58996 8.87022 7.66373 8.91984 7.745 8.9537C7.82627 8.98756 7.91345 9.005 8.00149 9.005C8.08954 9.005 8.17671 8.98756 8.25799 8.9537C8.33926 8.91984 8.41303 8.87022 8.47503 8.80771L11.8098 5.47296C11.8705 5.40953 11.9181 5.33474 11.9498 5.25287C12.0165 5.09049 12.0165 4.90836 11.9498 4.74599Z" fill="black"/>
</svg>
