<svg width="21" height="21" viewBox="0 0 21 21" fill="none" xmlns="http://www.w3.org/2000/svg">
<path fill-rule="evenodd" clip-rule="evenodd" d="M0.56543 1.25027L2.56373 0.5L3.46906 3.07057H21L18.5434 13.2163C18.4251 13.7049 17.9998 14.0477 17.512 14.0477H5.81722C5.37016 14.0477 4.97085 13.759 4.81807 13.3252L0.56543 1.25027Z" fill="white"/>
<path d="M7.41199 16.2432C6.27825 16.2432 5.35064 17.2009 5.35064 18.3715C5.35064 19.5421 6.27825 20.4999 7.41199 20.4999C8.54573 20.4999 9.47334 19.5421 9.47334 18.3715C9.47334 17.2009 8.54573 16.2432 7.41199 16.2432Z" fill="white"/>
<path d="M15.625 16.2433C14.4913 16.2433 13.5637 17.2011 13.5637 18.3717C13.5637 19.5422 14.4913 20.5 15.625 20.5C16.7588 20.5 17.6864 19.5422 17.6864 18.3717C17.6864 17.2011 16.7588 16.2433 15.625 16.2433Z" fill="white"/>
<rect x="8.56543" y="7.5" width="6" height="2" fill="white"/>
<rect x="12.5654" y="5.5" width="6" height="2" transform="rotate(90 12.5654 5.5)" fill="white"/>
</svg>
