<svg width="18" height="12" viewBox="0 0 18 12" fill="none" xmlns="http://www.w3.org/2000/svg">
<path d="M17.1106 0.347263C16.9981 0.237227 16.8643 0.149889 16.7169 0.0902873C16.5695 0.0306856 16.4114 0 16.2517 0C16.0921 0 15.9339 0.0306856 15.7865 0.0902873C15.6391 0.149889 15.5054 0.237227 15.3929 0.347263L6.38114 9.10519L2.59499 5.41888C2.47823 5.30942 2.34041 5.22335 2.18938 5.16558C2.03835 5.10782 1.87708 5.07949 1.71477 5.08222C1.55246 5.08494 1.39229 5.11867 1.24341 5.18147C1.09453 5.24427 0.959855 5.33491 0.847071 5.44823C0.734286 5.56154 0.645603 5.69531 0.586085 5.84189C0.526566 5.98846 0.497377 6.14498 0.500185 6.30251C0.502993 6.46004 0.537743 6.61548 0.602451 6.75997C0.667158 6.90447 0.760556 7.03518 0.877311 7.14464L5.5223 11.6527C5.63475 11.7628 5.76854 11.8501 5.91594 11.9097C6.06335 11.9693 6.22145 12 6.38114 12C6.54083 12 6.69893 11.9693 6.84634 11.9097C6.99374 11.8501 7.12753 11.7628 7.23998 11.6527L17.1106 2.07302C17.2334 1.96309 17.3314 1.82966 17.3984 1.68115C17.4654 1.53264 17.5 1.37227 17.5 1.21014C17.5 1.04801 17.4654 0.88764 17.3984 0.739132C17.3314 0.590623 17.2334 0.457197 17.1106 0.347263Z" fill="#6AB35E"/>
</svg>
