<svg width="117" height="130" viewBox="0 0 117 130" fill="none" xmlns="http://www.w3.org/2000/svg">
<g filter="url(#filter0_d)">
<path d="M40 35C40 21.1929 51.1929 10 65 10C78.8071 10 90 21.1929 90 35C90 48.8071 78.8071 60 65 60C51.1929 60 40 48.8071 40 35Z" fill="white"/>
<path fill-rule="evenodd" clip-rule="evenodd" d="M65.001 24C62.0136 24 61.6387 24.0131 60.4653 24.0665C59.2943 24.1201 58.4949 24.3055 57.7955 24.5775C57.072 24.8585 56.4583 25.2343 55.8469 25.8459C55.235 26.4574 54.8592 27.0711 54.5773 27.7943C54.3046 28.494 54.1189 29.2935 54.0662 30.4641C54.0138 31.6374 54 32.0126 54 35C54 37.9874 54.0133 38.3612 54.0665 39.5345C54.1203 40.7056 54.3057 41.5049 54.5775 42.2043C54.8587 42.9278 55.2345 43.5415 55.8462 44.1529C56.4574 44.7648 57.0711 45.1415 57.7941 45.4225C58.494 45.6945 59.2936 45.8799 60.4644 45.9335C61.6377 45.9869 62.0124 46 64.9997 46C67.9873 46 68.3611 45.9869 69.5345 45.9335C70.7055 45.8799 71.5058 45.6945 72.2056 45.4225C72.9289 45.1415 73.5417 44.7648 74.1529 44.1529C74.7648 43.5415 75.1406 42.9278 75.4225 42.2045C75.6929 41.5049 75.8785 40.7053 75.9335 39.5347C75.9862 38.3614 76 37.9874 76 35C76 32.0126 75.9862 31.6377 75.9335 30.4643C75.8785 29.2933 75.6929 28.494 75.4225 27.7945C75.1406 27.0711 74.7648 26.4574 74.1529 25.8459C73.541 25.2341 72.9291 24.8582 72.205 24.5775C71.5037 24.3055 70.7039 24.1201 69.5328 24.0665C68.3595 24.0131 67.986 24 64.9976 24H65.001ZM64.0142 25.9823C64.3071 25.9818 64.6339 25.9823 65.001 25.9823C67.938 25.9823 68.2861 25.9928 69.4459 26.0455C70.5185 26.0946 71.1005 26.2738 71.4883 26.4243C72.0016 26.6237 72.3676 26.862 72.7524 27.247C73.1374 27.632 73.3757 27.9987 73.5756 28.512C73.7261 28.8993 73.9056 29.4814 73.9544 30.5539C74.0071 31.7135 74.0186 32.0618 74.0186 34.9974C74.0186 37.9331 74.0071 38.2814 73.9544 39.441C73.9053 40.5135 73.7261 41.0956 73.5756 41.4829C73.3762 41.9962 73.1374 42.3617 72.7524 42.7465C72.3674 43.1315 72.0019 43.3698 71.4883 43.5692C71.101 43.7204 70.5185 43.8992 69.4459 43.9482C68.2864 44.001 67.938 44.0124 65.001 44.0124C62.0637 44.0124 61.7156 44.001 60.556 43.9482C59.4835 43.8987 58.9014 43.7195 58.5134 43.569C58.0001 43.3696 57.6334 43.1313 57.2484 42.7463C56.8634 42.3613 56.6251 41.9955 56.4252 41.4819C56.2747 41.0947 56.0952 40.5126 56.0464 39.4401C55.9937 38.2805 55.9832 37.9322 55.9832 34.9947C55.9832 32.0572 55.9937 31.7107 56.0464 30.5512C56.0955 29.4787 56.2747 28.8966 56.4252 28.5088C56.6246 27.9955 56.8634 27.6288 57.2484 27.2438C57.6334 26.8588 58.0001 26.6205 58.5134 26.4207C58.9012 26.2694 59.4835 26.0907 60.556 26.0414C61.5708 25.9956 61.964 25.9818 64.0142 25.9795V25.9823ZM70.8728 27.8087C70.144 27.8087 69.5527 28.3993 69.5527 29.1283C69.5527 29.857 70.144 30.4483 70.8728 30.4483C71.6015 30.4483 72.1928 29.857 72.1928 29.1283C72.1928 28.3995 71.6015 27.8087 70.8728 27.8087ZM65.001 29.351C61.8814 29.351 59.352 31.8803 59.352 35C59.352 38.1196 61.8814 40.6478 65.001 40.6478C68.1207 40.6478 70.6491 38.1196 70.6491 35C70.6491 31.8803 68.1207 29.351 65.001 29.351ZM65.001 31.3333C67.0259 31.3333 68.6677 32.9748 68.6677 35C68.6677 37.0249 67.0259 38.6666 65.001 38.6666C62.9758 38.6666 61.3343 37.0249 61.3343 35C61.3343 32.9748 62.9758 31.3333 65.001 31.3333Z" fill="#DAB56B"/>
</g>
<defs>
<filter id="filter0_d" x="0" y="0" width="130" height="130" filterUnits="userSpaceOnUse" color-interpolation-filters="sRGB">
<feFlood flood-opacity="0" result="BackgroundImageFix"/>
<feColorMatrix in="SourceAlpha" type="matrix" values="0 0 0 0 0 0 0 0 0 0 0 0 0 0 0 0 0 0 127 0" result="hardAlpha"/>
<feOffset dy="30"/>
<feGaussianBlur stdDeviation="20"/>
<feColorMatrix type="matrix" values="0 0 0 0 0 0 0 0 0 0 0 0 0 0 0 0 0 0 0.15 0"/>
<feBlend mode="normal" in2="BackgroundImageFix" result="effect1_dropShadow"/>
<feBlend mode="normal" in="SourceGraphic" in2="effect1_dropShadow" result="shape"/>
</filter>
</defs>
</svg>
