<svg width="20" height="16" viewBox="0 0 20 16" fill="none" xmlns="http://www.w3.org/2000/svg">
<path d="M20 5.5V12.75C20.0001 13.5801 19.6824 14.3788 19.1123 14.9822C18.5422 15.5856 17.7628 15.948 16.934 15.995L16.75 16H3.25C2.41986 16.0001 1.62117 15.6824 1.01777 15.1123C0.414367 14.5422 0.0519987 13.7628 0.00500011 12.934L0 12.75L0.00500011 5.5L9.652 10.4144C9.75938 10.4706 9.87879 10.5 10 10.5C10.1212 10.5 10.2406 10.4706 10.348 10.4144L20 5.5ZM3.25 2.36051e-08H16.75C17.5556 -9.70147e-05 18.3325 0.298996 18.93 0.839267C19.5276 1.37954 19.9032 2.12248 19.984 2.924L10 8.154L0.016 2.924C0.0935234 2.15431 0.44305 1.43752 1.00175 0.902463C1.56045 0.367409 2.29168 0.049187 3.064 0.00500014L3.25 2.36051e-08Z" fill="white"/>
</svg>
