<svg width="15" height="15" viewBox="0 0 15 15" fill="none" xmlns="http://www.w3.org/2000/svg">
<path fill-rule="evenodd" clip-rule="evenodd" d="M8.931 1.69362C6.48503 1.69362 4.50218 3.74093 4.50218 6.2664C4.50218 7.5461 5.01022 8.70176 5.83151 9.53271C6.63114 10.3418 7.72399 10.8392 8.931 10.8392C11.377 10.8392 13.3598 8.79188 13.3598 6.2664C13.3598 3.74093 11.377 1.69362 8.931 1.69362ZM2.86188 6.2664C2.86188 2.80556 5.57912 0 8.931 0C12.2829 0 15.0001 2.80556 15.0001 6.2664C15.0001 9.72724 12.2829 12.5328 8.931 12.5328C7.56809 12.5328 6.30917 12.0682 5.29623 11.2851L1.63218 15L0.48291 13.7916L4.12728 10.0966C3.33446 9.03784 2.86188 7.70858 2.86188 6.2664Z" fill="#AEA098"/>
</svg>
