<svg width="30" height="31" viewBox="0 0 30 31" fill="none" xmlns="http://www.w3.org/2000/svg">
<g clip-path="url(#clip0)">
<path d="M15 30.5C23.2968 30.5 30 23.8045 30 15.5C30 7.19545 23.3045 0.499999 15 0.499999C6.69546 0.499998 2.03735e-06 7.19545 1.31134e-06 15.5C5.85335e-07 23.8045 6.70308 30.5 15 30.5ZM15 2.50569C22.1988 2.50569 27.9944 8.30128 27.9944 15.5001C27.9944 22.6989 22.1987 28.4945 15 28.4945C7.80128 28.4945 2.0056 22.6989 2.00561 15.5001C2.00561 8.30128 7.8012 2.50569 15 2.50569Z" fill="#C4C4C4"/>
<path d="M11.2382 15.9768L16.5136 21.2522C16.8307 21.5693 17.3125 21.5693 17.6357 21.2522C17.9528 20.9351 17.9528 20.4532 17.6357 20.1299L13.0007 15.495L17.6357 10.86C17.9528 10.5429 17.9528 10.061 17.6357 9.73782C17.4772 9.57927 17.3186 9.49999 17.0746 9.49999C16.916 9.49999 16.672 9.57927 16.4343 9.65854L11.2382 14.8546C11.0796 15.0132 11.0003 15.1717 11.0003 15.4157C11.0003 15.6536 11.0796 15.8182 11.2382 15.9768Z" fill="#C4C4C4"/>
</g>
<defs>
<clipPath id="clip0">
<rect width="30" height="30" fill="white" transform="translate(30 30.5) rotate(-180)"/>
</clipPath>
</defs>
</svg>
