<svg width="30" height="31" viewBox="0 0 30 31" fill="none" xmlns="http://www.w3.org/2000/svg">
<g clip-path="url(#clip0)">
<path d="M15 30.5C23.2968 30.5 30 23.8045 30 15.5C30 7.19545 23.3045 0.499999 15 0.499999C6.69546 0.499998 2.03735e-06 7.19545 1.31134e-06 15.5C5.85335e-07 23.8045 6.70308 30.5 15 30.5ZM15 2.50569C22.1988 2.50569 27.9944 8.30128 27.9944 15.5001C27.9944 22.6989 22.1987 28.4945 15 28.4945C7.80128 28.4945 2.0056 22.6989 2.00561 15.5001C2.00561 8.30128 7.8012 2.50569 15 2.50569Z" fill="#C4C4C4"/>
<path d="M19.6353 15.0132L14.36 9.73783C14.0429 9.42072 13.561 9.42072 13.2378 9.73783C12.9207 10.0549 12.9207 10.5368 13.2378 10.86L17.8728 15.495L13.2378 20.13C12.9207 20.4471 12.9207 20.929 13.2378 21.2522C13.3964 21.4107 13.5549 21.49 13.7989 21.49C13.9575 21.49 14.2015 21.4107 14.4392 21.3314L19.6353 16.1353C19.7939 15.9768 19.8733 15.8182 19.8733 15.5742C19.8733 15.3364 19.794 15.1718 19.6353 15.0132Z" fill="#C4C4C4"/>
</g>
<defs>
<clipPath id="clip0">
<rect width="30" height="30" fill="white" transform="translate(30 30.5) rotate(-180)"/>
</clipPath>
</defs>
</svg>
