<svg width="20" height="20" viewBox="0 0 20 20" fill="none" xmlns="http://www.w3.org/2000/svg">
<path d="M0 5.55556C0 1.5667 2.38664 0.262821 3.94694 0.0374198C4.25846 -0.00758311 4.55559 0.148194 4.74444 0.4L7.2574 3.75061C7.55599 4.14873 7.5164 4.70582 7.16451 5.05771L4.9541 7.26813C4.64974 7.57248 4.57563 8.03563 4.79626 8.40522C5.28367 9.22168 6.27751 10.722 7.77778 12.2222C9.27805 13.7225 10.7783 14.7163 11.5948 15.2037C11.9644 15.4244 12.4275 15.3503 12.7319 15.0459L14.9423 12.8355C15.2942 12.4836 15.8513 12.444 16.2494 12.7426L19.6 15.2556C19.8518 15.4444 20.0076 15.7415 19.9626 16.0531C19.7372 17.6134 18.4333 20 14.4444 20C10 20 6.66667 16.6667 5 15C3.33333 13.3333 0 10 0 5.55556Z" fill="white"/>
</svg>
